<?xml version="1.0" encoding="utf-8"?>
<!-- Generator: Adobe Illustrator 25.0.0, SVG Export Plug-In . SVG Version: 6.00 Build 0)  -->
<svg version="1.1" id="Layer_1" xmlns="http://www.w3.org/2000/svg" xmlns:xlink="http://www.w3.org/1999/xlink" x="0px" y="0px"
	 viewBox="0 0 1920 1080" style="enable-background:new 0 0 1920 1080;" xml:space="preserve">
<style type="text/css">
	.st0{fill:#EA1B24;}
	.st1{fill:#FFFFFF;}
	.st2{fill:#FFDB16;}
	.st3{fill:#FFF100;}
</style>
<g>
	<g>
		<g id="awEm3y_1_">
			<g>
				<path class="st0" d="M1075.8,936.3c-38.7-0.1-77.9-0.1-116.4-0.1c-38.3,0-77.1,0-115.4,0.1h-0.3c-31.8,0-59.3-11.4-81.7-34
					c-48.6-48.7-106-106.3-163.6-163.7c-22.9-22.8-34.4-50.7-34.4-82.9c0.2-75.6,0.2-153.5,0-231.5c-0.1-32.2,11.5-60.1,34.4-82.9
					c52.3-52.1,105.7-105.5,163.3-163.3c22.7-22.8,50.4-34.3,82.5-34.3l0.4,0c38.2,0.1,77,0.2,115.3,0.2c38.2,0,77.1-0.1,115.6-0.2
					l0.4,0c32,0,59.8,11.6,82.5,34.3c63.6,63.9,115.5,115.8,163.3,163.3c23,22.9,34.6,50.9,34.5,83.4c-0.1,26.8-0.1,54.1-0.1,80.5
					c0,11.6,0,23.2,0,34.8l0,34c0,27.2,0,54.5,0,81.7c0,24-5.6,44.2-17.3,61.7c-5,7.5-10.6,14.3-16.6,20.4
					c-33.4,33.6-67.5,67.7-100.5,100.7c-21.2,21.2-42.5,42.5-63.7,63.8c-22.5,22.5-50,33.9-81.7,33.9
					C1076.2,936.3,1075.8,936.3,1075.8,936.3z"/>
				<path d="M844.2,151.6c0.1,0,0.2,0,0.3,0c38.4,0.1,76.9,0.2,115.3,0.2c38.5,0,77.1-0.1,115.6-0.2c0.1,0,0.2,0,0.3,0
					c30.2,0,55.6,10.6,76.9,32c54.3,54.6,108.7,109,163.3,163.4c21.6,21.6,32.3,47.3,32.2,77.8c-0.1,38.4,0,76.9,0,115.3
					c0,38.6,0,77.2,0,115.7c0,20.6-4.4,40-16,57.3c-4.6,6.9-9.9,13.4-15.7,19.2c-54.6,54.9-109.5,109.6-164.2,164.4
					c-21.1,21.1-46.3,31.6-76.2,31.6c-0.1,0-0.2,0-0.3,0c-38.8-0.1-77.7-0.1-116.5-0.1c-38.4,0-76.9,0-115.3,0.1c-0.1,0-0.2,0-0.3,0
					c-29.9,0-55.1-10.5-76.2-31.7c-54.5-54.6-109-109.2-163.6-163.7c-21.5-21.4-32.1-47-32.1-77.3c0.2-77.2,0.2-154.3,0-231.5
					c-0.1-30.4,10.6-55.9,32.1-77.3c54.5-54.3,109-108.8,163.3-163.4C788.5,162.2,814,151.6,844.2,151.6 M844.2,135.9L844.2,135.9
					c-34.2,0-63.9,12.3-88.1,36.6c-57.6,57.9-111,111.3-163.2,163.3c-24.4,24.3-36.8,54.1-36.7,88.5c0.2,78,0.2,155.8,0,231.4
					c-0.1,34.4,12.3,64.2,36.7,88.5c57.4,57.2,114.9,114.8,163.6,163.6c24,24.1,53.4,36.3,87.3,36.3l0.3,0
					c38.2-0.1,77-0.1,115.3-0.1c38.6,0,77.8,0,116.5,0.1l0.3,0c33.9,0,63.3-12.2,87.3-36.3c21.2-21.3,42.8-42.9,63.7-63.7
					c33-33,67.1-67.1,100.5-100.7c6.4-6.4,12.3-13.7,17.6-21.6c12.5-18.8,18.6-40.4,18.6-66c0-27.3,0-55,0-81.9l0-33.9
					c0-11.6,0-23.2,0-34.8c0-26.4,0-53.7,0.1-80.5c0.1-34.6-12.2-64.5-36.8-89c-47.7-47.5-99.5-99.4-163.2-163.3
					c-24.2-24.3-53.8-36.7-88.1-36.7l-0.4,0c-38.4,0.1-77.3,0.2-115.6,0.2c-38.3,0-77.1-0.1-115.3-0.2L844.2,135.9L844.2,135.9
					L844.2,135.9z"/>
			</g>
			<path class="st1" d="M1304.8,537.8h-19.4v2.2c0,32.4,0,64.7,0,97c0,17.3-3.7,33.6-13.4,48c-3.8,5.7-8.3,11.2-13.1,16.1
				c-45.8,46-91.8,91.9-137.6,137.9c-17.7,17.7-38.8,26.5-63.9,26.5h-0.3c-32.6-0.1-65.1-0.1-97.7-0.1c-32.2,0-64.5,0-96.7,0.1h-0.3
				c-25.1,0-46.2-8.8-63.9-26.6c-45.7-45.8-91.4-91.6-137.2-137.2c-18-18-26.9-39.4-26.9-64.8c0.1-33.1,0.1-66.2,0.1-99.2h-19.4
				c0,33.4,0,66.6-0.1,99.2c-0.1,30.6,10.9,57,32.6,78.6c48.1,47.9,96.3,96.3,137.1,137.2c21.3,21.4,47.4,32.2,77.6,32.2h0.3
				c32-0.1,64.5-0.1,96.6-0.1c32.3,0,65.2,0,97.7,0.1h0.3c30.2,0,56.3-10.8,77.6-32.2c17.8-17.8,35.9-35.9,53.4-53.5
				c27.6-27.7,56.2-56.2,84.3-84.4c5.7-5.7,10.9-12.1,15.5-19c11.1-16.6,16.7-36.4,16.6-58.8c0-22.9,0-45.8,0-68.7l0-28.4V537.8z
				 M798.4,241.1c17.9-18,39.2-26.8,64.5-26.8h0.3c32.2,0.1,64.5,0.1,96.7,0.1c32.3,0,64.6,0,96.9-0.1h0.3
				c25.3,0,46.6,8.9,64.5,26.9c35,35.2,70.1,70.3,105.3,105.4h27.4c-35.1-35-73.4-73.4-119-119.1c-21.5-21.6-47.8-32.6-78.2-32.6
				h-0.3c-32.2,0.1-64.8,0.1-96.9,0.1c-32.2,0-64.7,0-96.6-0.1h-0.4c-30.4,0-56.8,10.9-78.2,32.5c-41.8,41.9-80.9,81.1-119,119.1
				h27.4C728.2,311.5,763.3,276.4,798.4,241.1z"/>
			<path class="st2" d="M1013,528.1c-0.4,1.3-0.9,2.6-1.3,3.9c-4.8,14.4-1.6,25,9.6,35.2c11.9,10.8,24.3,21.4,34.7,33.6
				c22.2,25.9,24.4,58.8,7.4,85.9c-15.8,25.1-47.4,37.9-75.6,30.5c-30.6-8-52.1-33.2-53.4-64c-0.9-22.3,4.3-43,19.1-60.5
				c0.8-0.9,1.7-1.8,2.6-2.6c0.2-0.2,0.9-1.1,1.6-1.3c1.4,14.8,0,31.4,14.2,41.8C960.1,586.1,977.5,553.3,1013,528.1z M1012.1,642.8
				c-6.2,21.6-21,33.9-42.1,39.6c10.7,13.6,34.2,18.1,53.9,10.9c19.9-7.3,32.3-26.6,31.8-48.2c-0.5-20-18.8-38.7-34.4-44.8
				c7.2,12.9,11.9,25.8,9.9,40.3c-1.8,13.1-14.5,30.7-23.6,32.8C1013.5,663.8,1014.6,653.7,1012.1,642.8z"/>
			<path class="st1" d="M1233.7,435.1c0,1.6,0,3.2,0,4.8c0,21.4,0,42.7,0,64.1c0,8.2-2,10.2-10.4,10.2c-5.1,0-10.1,0.1-15.2,0
				c-5.9-0.1-8.5-2.6-8.5-8.5c-0.1-42.4-0.1-84.8,0-127.2c0-6.2,2.5-8.4,8.9-8.5c8,0,16,0,24,0c6-0.1,10.1,2.7,12.7,8.1
				c8,17.3,16.1,34.5,24.2,51.7c0.7,1.4,1.5,2.8,2.2,4.1c0.4-0.1,0.8-0.2,1.2-0.3c0-1.6,0-3.2,0-4.9c0-16.4,0-32.9,0-49.3
				c0-7.1,2.3-9.4,9.3-9.4c5.2,0,10.4,0,15.7,0c6.9,0,9.4,2.5,9.4,9.5c0,40.3,0,80.5,0,120.8c0,2,0.1,4,0,6c-0.2,5-2.7,7.7-7.8,7.9
				c-6.7,0.2-13.5,0.2-20.3,0c-5.4-0.2-8.9-3.1-11.2-8.1c-10.1-22.4-20.5-44.7-30.7-67c-0.7-1.4-1.4-2.8-2.2-4.2
				C1234.5,434.9,1234.1,435,1233.7,435.1z"/>
			<path class="st1" d="M779.9,555.4c9.4,0,18.7-0.4,28.1,0.1c11.9,0.6,19.7,9.2,19.9,21.1c0.1,5.4,0.1,10.8,0,16.1
				c-0.1,5.1-2.4,7.8-7.4,8.1c-6.4,0.3-12.9,0.2-19.3,0c-4.1-0.2-6.7-2.4-7.4-6.8c-0.8-5.5-2.4-6.8-7.8-6.9c-4.5-0.1-8.9-0.1-13.4,0
				c-4.3,0.1-6.5,2.4-6.6,6.6c-0.1,3.1,0,6.1,0,9.2c0,6.2,2,8.4,8.2,8.5c9.7,0.1,19.4-0.2,29,0.2c4.5,0.2,9.2,1,13.3,2.9
				c7.4,3.4,11.3,9.8,11.4,18.1c0.1,15.2,0.2,30.4,0,45.6c-0.1,10.8-8.9,20.3-19.7,20.5c-18.7,0.4-37.5,0.4-56.2,0
				c-10.8-0.2-19.6-9.5-20.2-20.3c-0.3-5.5-0.2-11.1,0-16.6c0.1-4.9,2.9-7.5,7.9-7.6c6-0.1,12-0.1,18,0c5.3,0.1,7.4,1.9,8.4,7.2
				c0.7,3.7,2.8,5.7,6.6,5.8c4.8,0.1,9.5,0.1,14.3,0c4.5-0.1,6.6-2.3,6.8-6.9c0.1-2.9,0.1-5.8,0-8.8c-0.1-6.1-2-8.1-8-8.1
				c-10-0.1-20,0.1-30-0.1c-15.4-0.3-24.1-9.3-24.1-24.6c0-4.1,0-8.3,0-12.4c0-9.4-0.1-18.7,0-28.1c0.1-14,7.3-22,21.1-22.8
				C761.8,554.8,770.9,555.3,779.9,555.4C779.9,555.3,779.9,555.3,779.9,555.4z"/>
			<path class="st1" d="M813,442.4c0,20.4,0,40.9,0,61.3c0,8.3-2.2,10.5-10.7,10.5c-4.6,0-9.2,0-13.8,0c-7.6,0-10-2.3-10-9.8
				c0-17.5,0-35,0-52.5c0-5.4-1.5-6.3-6.4-3.9c-4.7,2.3-9.3,4.8-13.9,7.1c-4.7,2.4-7,6-6.9,11.5c0.1,12.9,0.1,25.8,0,38.7
				c0,6.4-2.5,8.9-8.9,9c-5.2,0.1-10.4,0.1-15.7,0c-7.2-0.1-9.7-2.5-9.7-9.7c0-38.6,0-77.1,0-115.7c0-3.7-0.1-7.4,0.1-11.1
				c0.2-5,2.8-7.6,7.9-7.7c6-0.1,12-0.1,18,0c5.9,0.1,8.4,2.6,8.4,8.4c0,13.5,0,27,0,40.6c0,5.6,1.7,6.6,6.7,4.1
				c4.7-2.3,9.3-4.7,13.9-7.1c4.5-2.3,6.8-5.8,6.7-11.1c-0.2-8.6-0.1-17.2,0-25.8c0-6.5,2.4-9,8.8-9.1c5.7-0.1,11.4-0.1,17,0
				c6.1,0.1,8.6,2.6,8.6,8.8C813.1,400,813,421.2,813,442.4z"/>
			<path class="st1" d="M609,442.1c0-16,0-32,0-48c0-14.4,9.5-24,23.9-24.1c16.3-0.1,32.6-0.1,48.8,0c14.5,0.1,23.5,9.2,23.5,23.7
				c0,9.2,0,18.4,0,27.7c0,5.8-2.2,8.1-8,8.3c-6.3,0.2-12.6,0.2-18.9,0c-4.9-0.2-6.9-2.4-7.2-7.2c-0.2-4.3,0-8.6-0.1-12.9
				c-0.1-5.3-2.3-7.6-7.6-7.7c-4.1-0.1-8.3-0.1-12.4,0c-5.3,0.1-7.6,2.3-7.6,7.6c0,21.8,0,43.6,0,65.5c0,4.8,2.1,7.1,6.9,7.4
				c4.6,0.2,9.2,0.3,13.8,0c4.8-0.3,6.8-2.6,6.9-7.4c0.1-4.3-0.1-8.6,0.1-12.9c0.2-5.3,2.7-7.8,8.1-7.9c6-0.1,12-0.1,18,0
				c5.5,0.1,8,2.8,8,8.4c0.1,9.4-0.4,18.8,0.1,28.1c0.7,13.3-9,23.1-22.4,23.5c-17.2,0.4-34.4,0.5-51.6,0c-13.9-0.4-22.4-10-22.4-24
				C609,474.1,609,458.1,609,442.1z"/>
			<path class="st1" d="M883,442c0-15.8,0-31.7,0-47.5c0-15,9.4-24.4,24.5-24.4c15.8-0.1,31.6-0.1,47.5,0c15.4,0.1,24.3,9,24.3,24.3
				c0,8.9,0,17.8,0,26.7c0,6.2-2.1,8.5-8.2,8.6c-6.1,0.2-12.3,0.2-18.4,0c-5.3-0.2-7.3-2.4-7.4-7.8c-0.1-4.1,0.1-8.3-0.1-12.4
				c-0.2-4.9-2.6-7.4-7.4-7.5c-4.5-0.1-8.9-0.1-13.4,0c-4.7,0.1-7.1,2.5-7.1,7.2c-0.1,22,0,44,0,65.9c0,4.5,2.4,7,6.7,7.2
				c4.7,0.3,9.5,0.3,14.3,0c4.7-0.3,6.9-2.7,7-7.5c0.1-4.3,0-8.6,0.1-12.9c0.1-5.1,2.5-7.7,7.6-7.8c6.1-0.2,12.3-0.2,18.4,0
				c5.3,0.1,7.9,2.8,7.9,8c0.1,9.5,0.1,19.1,0,28.6c-0.1,13.7-8.2,22.9-21.9,23.3c-17.5,0.6-35,0.6-52.5,0
				c-13.6-0.5-21.8-10-21.9-23.6C882.9,474.3,883,458.1,883,442z"/>
			<path class="st1" d="M1026.7,411.6c0.9-1.4,1.8-2.7,2.7-4.1c5.7-9.9,11.4-19.7,16.9-29.6c3-5.4,7.3-8,13.5-7.8
				c6.1,0.1,12.3,0,18.4,0c6,0.1,7.5,2.5,4.7,7.8c-9,17.1-18,34.3-27.1,51.3c-3.1,5.7-3.1,10.9-0.1,16.6
				c10.5,19.8,20.8,39.7,31.1,59.6c3.4,6.6,2,8.8-5.5,8.9c-5.7,0-11.4,0-17,0c-5.7,0-10-2.4-12.9-7.4c-7.4-12.6-14.9-25.1-22.3-37.7
				c-0.7-1.2-1.6-2.3-3.5-3.2c-0.1,1.6-0.3,3.2-0.3,4.8c0,11.5,0,23,0,34.6c0,6.2-2.4,8.7-8.5,8.8c-5.7,0.1-11.4,0.1-17,0
				c-6-0.1-8.6-2.8-8.7-8.9c0-42.1,0-84.2,0-126.3c0-6.5,2.6-8.9,8.9-9c5.4,0,10.7,0,16.1,0c6.9,0,9.2,2.3,9.2,9
				c0,9.2,0,18.4,0,27.7c0,1.5,0.2,2.9,0.3,4.4C1025.8,411.3,1026.2,411.4,1026.7,411.6z"/>
			<path class="st1" d="M1088.2,626.8c0-21.1,0-42.1,0-63.2c0-6,2-8.5,7.8-8.5c22.6-0.1,45.2-0.2,67.7,0.3
				c11.9,0.3,20.5,9.3,20.7,21.2c0.3,17.2,0.3,34.4,0,51.6c-0.2,11.3-8.7,20.1-20.1,20.7c-10.9,0.6-21.8,0.4-32.7,0.5
				c-7.7,0.1-9.2,1.6-9.2,9.3c0,10.5,0.1,20.9,0,31.4c-0.1,6.7-2.2,8.8-8.9,8.9c-5.5,0.1-11.1,0.1-16.6,0c-6.6-0.1-8.7-2.3-8.7-9
				C1088.2,668.9,1088.2,647.9,1088.2,626.8z M1150.1,602.2c0-2.9,0.1-5.8,0-8.8c-0.1-4-2.4-6.3-6.4-6.4c-5.1-0.1-10.1-0.1-15.2,0
				c-3.6,0.1-5.8,2.1-6,5.7c-0.2,6.3-0.2,12.6,0,18.9c0.1,3.4,2.1,5.5,5.6,5.6c5.4,0.2,10.8,0.2,16.1,0c3.8-0.1,5.8-2.4,5.9-6.3
				C1150.1,608.1,1150.1,605.2,1150.1,602.2z"/>
			<path class="st1" d="M1100.3,442.1c0-20.7,0-41.5,0-62.2c0-7.6,2.3-9.8,9.9-9.8c21.7,0,43.3,0,65,0c7.7,0,9.9,2.2,10,9.8
				c0,4.6,0.1,9.2,0,13.8c-0.2,5.7-2.6,8.1-8.3,8.1c-11.2,0.1-22.4,0-33.6,0c-6.4,0-8.5,2.1-8.5,8.6c0,2.6,0,5.2,0,7.8
				c0.1,6.7,1.7,8.3,8.5,8.4c5.7,0.1,11.4,0,17.1,0c7.8,0.1,9.8,2.2,9.8,9.9c0,4.3,0,8.6,0,12.9c-0.1,6.7-2.4,9.1-9.2,9.2
				c-6.1,0.1-12.3,0-18.4,0.1c-5.8,0.1-7.7,2-7.8,7.7c0,2.3,0,4.6,0,6.9c0,6.9,2,8.9,9.1,8.9c11.4,0,22.7,0,34.1,0
				c7.8,0,9.9,2.1,9.9,9.8c0,4.5,0.1,8.9,0,13.4c-0.2,6.1-2.7,8.6-8.9,8.7c-23.2,0.1-46.4,0.1-69.6,0c-6.5,0-9-2.7-9-9.4
				C1100.3,483.9,1100.3,463,1100.3,442.1z"/>
			<path class="st1" d="M869.6,642.8c0-15.5,0-31,0-46.5c0-7.4-1.8-9.2-9.2-9.2c-4.3,0-8.6,0.1-12.9-0.1c-5.3-0.3-7.7-2.8-7.9-8.2
				c-0.1-4.9-0.1-9.8,0-14.7c0.1-6.5,2.3-8.9,9-9c11.2-0.1,22.4-0.1,33.6-0.1c13.8,0,27.6,0,41.4,0c8.1,0,10.1,2.2,10.2,10.1
				c0,4.3,0,8.6,0,12.9c-0.1,6.3-2.5,8.8-8.9,9c-4.1,0.1-8.3,0-12.4,0c-6.8,0.1-8.4,1.7-8.4,8.5c0,30.4,0,60.8,0,91.2
				c0,1.7,0.1,3.4-0.1,5.1c-0.4,4.6-2.8,7-7.4,7.1c-6.4,0.2-12.9,0.2-19.3,0c-5.2-0.1-7.5-2.5-7.5-7.8
				C869.6,675.1,869.6,658.9,869.6,642.8z"/>
			<path class="st1" d="M831,441.7c0-20.7,0-41.5,0-62.2c0-7.2,2.2-9.4,9.2-9.4c5.7,0,11.4-0.1,17,0c5.1,0.1,7.7,2.5,7.8,7.6
				c0.2,6.3,0.1,12.6,0.1,18.9c0,35.3,0,70.7,0,106c0,9.8-1.8,11.6-11.4,11.6c-4.5,0-8.9,0-13.4,0c-7.1-0.1-9.4-2.4-9.4-9.4
				C831,483.8,831,462.8,831,441.7z"/>
		</g>
		<path class="st0" d="M1003.1,614.1c-0.4,0.4-0.8,0.9-1.2,1.3C1002.3,614.9,1002.7,614.5,1003.1,614.1z"/>
	</g>
	<g>
		<path class="st3" d="M789.4,763.8c0-0.7,1-1.2,2.7-1.7c4.1-1,12.2-1.6,19.9-1.6c3,0,5.3,2.3,5.3,3.6c0,0.8-1.1,1.4-3.4,1.9
			c-2.4,0.5-6.4,1-10.8,1.2c0.1,2.4,0.1,5.4,0.1,8.7c0,2.1,0,4.2-0.1,6.4c3.4-0.5,7.1-0.9,9.1-0.9c2,0,3.4,1.9,3.4,3.3
			c0,1-0.5,1.5-1.6,1.6c-1.6,0.2-7.1,0.8-11,1.3c-0.2,5.8-0.4,10.7-0.6,12.2c-0.1,1.3-0.4,1.7-2.1,1.7c-2.1,0-4.4-0.8-4.6-2.3
			c-0.2-1.1-0.4-7.6-0.4-15c0-5.6,0.1-11.7,0.4-16.6c-1.1,0.1-2.1,0.1-3.1,0.1C790.9,767.5,789.4,765.5,789.4,763.8z"/>
		<path class="st3" d="M844.1,775.1c0.4-1.5,2.6,0.1,2.6,1.5c-0.6,9.3-5.7,24.8-14.6,24.8c-8,0-11.1-6.7-10.9-23.4
			c0-13.1,4-21.9,11.1-21.9c4.5,0,6.4,3,6.4,8.6c0,7.5-4,14.5-10.7,20.6c0.3,7.3,2.1,10.6,5.2,10.6
			C838,795.9,841.7,784.8,844.1,775.1z M828,780.5c3.4-5.9,5.4-11.5,5.4-15.6c0-3.6-0.8-4.5-1.8-4.5
			C829.6,760.4,828.2,766,828,780.5z"/>
		<path class="st3" d="M856.7,793.9c-1.7,4.2-4.1,7.4-7.3,7.4c-4.4,0-8.8-4.1-8.8-10.2c0-13.7,4.9-21.2,11.6-21.2
			c3.1,0,5.1,1.6,6.2,3.7c0.4-2.1,0.8-3,2-3c2,0,3.6,1.2,3.6,2.7c0,3.4-1.1,14.4-1.1,19.2c0,2,0.8,2.5,1.9,2.5
			c3.2,0,6.5-10.8,8.8-19.9c0.5-1.6,2.6,0.1,2.6,1.5c-0.7,9.3-5,24.7-12.1,24.7C860.5,801.4,856.5,798.1,856.7,793.9z M846.9,790.9
			c0,2.3,0.6,4.1,2.2,4.1c3.8,0,7.4-11.6,7.4-16.5c0-2.2-1.3-3.4-3.2-3.4C850.2,775.1,846.9,781.1,846.9,790.9z"/>
		<path class="st3" d="M903.8,791.6c0-4.5,0.9-9.3,1.1-13.3c0-0.9-0.3-1.4-0.9-1.4c-3.2,0-7.4,14.3-8.3,22.6c-0.1,0.8-0.9,1.4-2,1.4
			c-2.8,0-4.8-1.1-4.8-3.1c0-6.9,0.5-13.7,0.4-19.4c0-0.9-0.2-1.4-0.9-1.4c-3.1,0-6.7,14.3-8,22.8c-0.1,0.7-1.1,1.2-2.3,1.2
			c-2.1,0-4.3-0.8-4.4-2.8c-0.1-3,0.4-21.6,1.1-24.8c0.3-1.1,0.6-1.5,1.6-1.6c1.4,0,3.8,0.7,3.8,3.1c0,4.7-0.1,9-0.4,12.1
			c2.6-10.1,6.6-17.1,11.8-17.1c4.2,0,4.9,3,4.9,9.1c0,1,0,2.1-0.1,3.4c2.4-7.6,5.9-12.5,10.9-12.5c3.2,0,4.6,1.9,4.6,5.1
			c0,4-1.3,9.6-1.3,15.3c0,3.5,1,4.7,2.4,4.7c3.2,0,6.4-10.8,8.7-19.9c0.1-0.4,0.4-0.7,0.7-0.7c0.8,0,1.9,1,1.9,2
			c0,5.1-5,24.9-13.4,24.9C906,801.4,903.8,798,903.8,791.6z"/>
		<path class="st3" d="M937.1,790.3c0.5-0.5,0.9-0.8,1.4-0.8c0.8,0,1.2,0.7,1.2,1.8c0,4.7-3.1,10.1-9.6,10.1
			c-8.7,0-11.9-5.3-11.9-11.6c0-12.6,4.8-19.9,12.4-19.9c5,0,8.5,2.8,8.5,7.1c0,5.1-4.8,9.7-14,10.5c0,0.2,0,0.5,0,0.8
			c0,5.2,2.6,7.6,5.9,7.6C934.2,796,936,792.6,937.1,790.3z M925.2,784.8c6.6-2.2,8.2-5.7,8.2-7.9c0-1.7-0.9-2.7-2.5-2.7
			C928,774.2,925.7,777.4,925.2,784.8z"/>
		<path class="st3" d="M976.8,801.4c-9.7,0-13.9-5.1-13.9-16.8c0-13.9,4.4-24.4,14.9-24.4c8,0,11.1,5.5,11.1,11.6
			c0,2.5-0.5,4.8-1.6,5.6c-0.8,0.6-2.1,0.9-3.3,0.9c-1.1,0-2.1-0.3-2.1-1.2c0-1,0.1-2.5,0.1-3.5c0-5.4-1.6-7.7-4.9-7.7
			c-5.1,0-6.7,7.8-6.7,18c0,9.4,2.4,11.6,6.6,11.6c4.2,0,5.9-2.8,6.1-8.3c-1.4,0.1-2.6,0.1-3.5,0.2c-1.9,0-2.6-0.3-2.6-1.1
			c0-0.8,0.4-3.1,1.9-3.4c2.1-0.4,5.3-0.5,8.3-0.5c1.3,0,2,1,2,2.4C989.2,792.2,988.6,801.4,976.8,801.4z"/>
		<path class="st3" d="M1026.6,775.1c0.1-0.4,0.3-0.6,0.6-0.6c0.9,0,2.1,1,2,2.1c-0.7,9.3-4.9,24.7-13.8,24.7
			c-4.6,0-7.4-2.4-7.4-6.2c0-4.8,1.9-13.2,2.1-18.2c-1.5,0.1-3.9,0.1-5.7,0.2c-0.3,14.2-2.6,24.2-4.7,24.2c-1.7,0-3.8-1.2-3.8-2.7
			c0-1.5,3.1-8.8,4.2-21.7c-1.4-0.7-1.7-2.2-1.5-3.7c0.2-2.2,0.9-3.2,2.4-3.2c2.8,0,8.4,0.4,12.9,1c2.3,0.2,3.3,1.1,3.3,2.9
			c0,4.1-2.1,13.9-2.1,19.5c0,1.5,0.7,2.3,2,2.3C1020.5,795.6,1023.6,787,1026.6,775.1z"/>
		<path class="st3" d="M1044.4,775.1c0.1-0.5,0.4-0.7,0.6-0.7c0.9,0,2,1.1,1.9,2.2c-0.6,9.3-5.4,24.7-13.1,24.7
			c-5.3,0-7.1-4.2-7.1-11.5c0-5.3,0.4-15.3,1-18c0.3-1.4,0.9-1.8,1.9-1.8c2.1,0,4.5,0.8,4.5,2.7c0,8.1-0.6,12.3-0.6,17.3
			c0,3.7,1,4.9,2.4,4.9C1039.1,795,1042,784.2,1044.4,775.1z M1027.1,763.3c0-2.5,2.1-4.2,5.4-4.2c3.5,0,4.6,1.9,4.6,3.4
			c0,2.8-2.1,4.4-5.1,4.4C1028.9,766.9,1027.1,765.2,1027.1,763.3z"/>
		<path class="st3" d="M1067.2,775.1c0.4-1.5,2.6,0.1,2.6,1.5c-0.6,9.3-5.7,24.8-14.6,24.8c-8,0-11.1-6.7-10.9-23.4
			c0-13.1,4-21.9,11.1-21.9c4.5,0,6.4,3,6.4,8.6c0,7.5-4,14.5-10.7,20.6c0.3,7.3,2.1,10.6,5.2,10.6
			C1061.1,795.9,1064.7,784.8,1067.2,775.1z M1051.1,780.5c3.4-5.9,5.4-11.5,5.4-15.6c0-3.6-0.8-4.5-1.8-4.5
			C1052.7,760.4,1051.2,766,1051.1,780.5z"/>
		<path class="st3" d="M1089.9,775.1c0.4-1.5,2.6,0.1,2.6,1.5c-0.6,9.3-5.7,24.8-14.6,24.8c-8,0-11.1-6.7-10.9-23.4
			c0-13.1,4-21.9,11.1-21.9c4.5,0,6.4,3,6.4,8.6c0,7.5-4,14.5-10.7,20.6c0.3,7.3,2.1,10.6,5.2,10.6
			C1083.9,795.9,1087.5,784.8,1089.9,775.1z M1073.9,780.5c3.4-5.9,5.4-11.5,5.4-15.6c0-3.6-0.8-4.5-1.8-4.5
			C1075.4,760.4,1074,766,1073.9,780.5z"/>
		<path class="st3" d="M1115.2,775.1c0.1-0.4,0.4-0.6,0.6-0.6c0.9,0,1.9,1,1.9,2c0,5.1-6.2,24.9-19.4,24.9
			c-8.7,0-11.9-5.3-11.9-11.6c0-12.6,4.8-19.9,12.4-19.9c5,0,8.5,2.8,8.5,7.1c0,5.1-4.8,9.7-14,10.5c0,0.2,0,0.5,0,0.8
			c0,5.2,2.6,7.6,5.9,7.6C1106.9,796,1112.2,785,1115.2,775.1z M1093.4,784.8c6.6-2.2,8.2-5.7,8.2-7.9c0-1.7-0.9-2.7-2.5-2.7
			C1096.2,774.2,1093.9,777.4,1093.4,784.8z"/>
		<path class="st3" d="M1139.5,790.2c0.4-0.4,0.7-0.7,1.1-0.7c0.8,0,1.3,0.7,1.3,1.8c0,4.7-2.9,10.1-7.7,10.1
			c-3.4,0-5.5-2.9-6.1-8.3c-1.8,4.6-4.3,8.2-7.6,8.2c-4.4,0-8.8-4.1-8.8-10.2c0-13.7,4.9-21.2,11.6-21.2c2,0,3.5,0.7,4.6,1.7
			c0-1.6,0-3,0-4.2c-0.1-10.8,0.2-11.3,2.4-11.3c3.3,0,4.9,1.8,4.9,3.5c0,5.6-1.2,17.4-1.2,31c0,3.3,1,4.4,2.4,4.4
			C1138,795,1138.9,792.2,1139.5,790.2z M1118,790.9c0,2.3,0.6,4.1,2.2,4.1c3.8,0,7.4-11.6,7.4-16.5c0-2.2-1.3-3.4-3.2-3.4
			C1121.3,775.1,1118,781.1,1118,790.9z"/>
	</g>
</g>
</svg>
